<svg width="945" height="484" viewBox="0 0 945 484" fill="none" xmlns="http://www.w3.org/2000/svg">
<rect width="945" height="484" fill="white"/>
<g clip-path="url(#clip0_0:1)">
<g opacity="0.1">
<path opacity="0.1" d="M147.832 38.5072V483.598L109.418 484C101.22 484.089 93.0566 482.964 85.2144 480.664V92.6567H85.278C104.145 70.3419 125.299 51.7215 147.832 38.5072Z" fill="#6C63FF"/>
<path opacity="0.1" d="M941.896 102.334H77.3736C79.9449 99.0498 82.5585 95.8474 85.2144 92.7266V92.6567H939.746C940.575 95.8183 941.291 99.044 941.896 102.334Z" fill="#6C63FF"/>
<path opacity="0.1" d="M872.545 16.2448V389.177H869.396C867.762 392.479 866.15 395.716 864.559 398.889C863.851 400.295 863.143 401.675 862.454 403.055V12.7164C865.944 13.7994 869.308 14.9755 872.545 16.2448Z" fill="#6C63FF"/>
<path opacity="0.1" d="M632.411 11.9391V478.541L622.32 478.646V13.9304C625.668 13.2492 629.026 12.5767 632.411 11.9391Z" fill="#6C63FF"/>
<path opacity="0.1" d="M390.117 55.2324V481.074L380.035 481.179V54.7695C383.401 54.9792 386.768 55.1014 390.117 55.2324Z" fill="#6C63FF"/>
<path opacity="0.1" d="M869.396 389.186C867.763 392.487 866.15 395.725 864.559 398.898H13.1679C12.0002 395.701 10.9112 392.464 9.90085 389.186H869.396Z" fill="#6C63FF"/>
</g>
<path d="M209.27 232.17H192.027V282.529H209.27V232.17Z" fill="#3F3D56"/>
<path d="M673.303 229.55H656.06V282.826H673.303V229.55Z" fill="#3F3D56"/>
<path d="M783.265 466.078V477.432L645.397 478.655L643.927 478.681L591.528 479.144L590.276 479.162L574.349 479.293H573.877L476.793 480.157L317.426 481.581H317.29L276.77 481.948L276.334 481.956L96.286 483.546V470.445L138.621 445.991L223.563 445.309L225.378 445.301L225.977 445.292L227.792 445.266L268.575 444.943L270.399 444.934L270.98 444.925L272.795 444.916L285.872 444.812L286.217 444.803L318.479 444.541H318.742L570.483 442.497L576.645 442.453H577.262L581.963 442.41L616.13 442.139L617.945 442.113L619.624 442.095H620.495L631.122 442.017L633.228 441.991L636.05 441.973L644.898 441.894L658.937 441.781L660.752 441.763L663.91 441.746H664.5L732.3 441.187L783.265 466.078Z" fill="#65617D"/>
<path opacity="0.2" d="M783.265 466.078V477.432L645.397 478.655L643.927 478.681L591.528 479.144L590.276 479.162L574.349 479.293H573.877L476.793 480.157L317.426 481.581H317.29L276.77 481.948L276.334 481.956L96.286 483.546V470.445L138.621 445.991L223.563 445.309L225.378 445.301L225.977 445.292L227.792 445.266L268.575 444.943L270.399 444.934L270.98 444.925L272.795 444.916L285.872 444.812L286.217 444.803L318.479 444.541H318.742L570.483 442.497L576.645 442.453H577.262L581.963 442.41L616.13 442.139L617.945 442.113L619.624 442.095H620.495L631.122 442.017L633.228 441.991L636.05 441.973L644.898 441.894L658.937 441.781L660.752 441.763L663.91 441.746H664.5L732.3 441.187L783.265 466.078Z" fill="#602F36"/>
<path d="M268.711 422.418V443.807C268.712 444.82 268.414 445.813 267.851 446.669C267.289 447.526 266.486 448.211 265.535 448.646C264.827 448.976 264.053 449.155 263.266 449.17L231.595 449.816C230.749 449.836 229.91 449.665 229.144 449.318C228.177 448.891 227.357 448.206 226.782 447.343C226.208 446.481 225.903 445.478 225.904 444.453V422.418H268.711Z" fill="#3F3D56"/>
<path opacity="0.1" d="M268.711 422.418V443.807C268.712 444.82 268.414 445.813 267.851 446.669C267.289 447.526 266.486 448.211 265.535 448.646C264.827 448.976 264.053 449.155 263.266 449.17L231.595 449.816C230.749 449.836 229.91 449.665 229.144 449.318C228.177 448.891 227.357 448.206 226.782 447.343C226.208 446.481 225.903 445.478 225.904 444.453V422.418H268.711Z" fill="black"/>
<path d="M270.526 422.418V443.807C270.527 444.82 270.229 445.813 269.666 446.669C269.104 447.526 268.301 448.211 267.35 448.646C266.642 448.976 265.868 449.155 265.081 449.17L233.41 449.816C232.564 449.836 231.725 449.665 230.959 449.318C229.992 448.891 229.172 448.206 228.597 447.343C228.023 446.481 227.718 445.478 227.719 444.453V422.418H270.526Z" fill="#3F3D56"/>
<path d="M660.752 422.418H617.945V449.93H660.752V422.418Z" fill="#3F3D56"/>
<path opacity="0.1" d="M660.752 422.418H617.945V449.93H660.752V422.418Z" fill="black"/>
<path d="M658.937 422.418H616.13V449.93H658.937V422.418Z" fill="#3F3D56"/>
<path opacity="0.1" d="M209.27 232.161V237.166L192.027 236.738V232.161H209.27Z" fill="black"/>
<path d="M322.762 91.1807L302.044 234.415C301.913 235.33 301.435 236.166 300.704 236.764C299.972 237.361 299.037 237.679 298.078 237.655L132.187 233.515L129.038 233.437C128.489 233.424 127.95 233.3 127.455 233.074C126.959 232.847 126.519 232.523 126.163 232.121C125.807 231.72 125.543 231.251 125.387 230.745C125.232 230.238 125.19 229.706 125.262 229.183L148.522 79.2416C148.672 78.3128 149.178 77.4719 149.941 76.885C150.704 76.298 151.667 76.0077 152.642 76.0713L319.132 86.9186C319.669 86.9486 320.194 87.0854 320.674 87.3203C321.153 87.5553 321.577 87.8834 321.918 88.2839C322.259 88.6844 322.51 89.1486 322.655 89.6472C322.801 90.1457 322.837 90.6679 322.762 91.1807V91.1807Z" fill="black"/>
<path d="M159.657 86.6042L142.115 218.773L294.575 223.428L313.324 95.9144L159.657 86.6042Z" fill="#637CFF"/>
<path d="M529.927 84.5605H353.862C351.191 84.5605 349.025 86.6446 349.025 89.2156V231.288C349.025 233.859 351.191 235.943 353.862 235.943H529.927C532.598 235.943 534.764 233.859 534.764 231.288V89.2156C534.764 86.6446 532.598 84.5605 529.927 84.5605Z" fill="black"/>
<path d="M526.587 94.7528H357.792V220.807H526.587V94.7528Z" fill="#637CFF"/>
<path opacity="0.1" d="M673.303 229.541V232.851L656.06 233.192V229.541H673.303Z" fill="black"/>
<path d="M751.103 226.746C751.128 227.108 751.076 227.471 750.951 227.813C750.826 228.156 750.631 228.47 750.376 228.737C750.122 229.005 749.814 229.22 749.471 229.371C749.128 229.521 748.757 229.603 748.381 229.611L578.496 232.991C577.791 233.005 577.106 232.762 576.579 232.31C576.052 231.858 575.722 231.231 575.656 230.554L561.054 84.4557C561.018 84.0932 561.059 83.7275 561.174 83.3806C561.289 83.0338 561.476 82.713 561.724 82.4379C561.972 82.1627 562.275 81.9387 562.615 81.7796C562.956 81.6206 563.326 81.5297 563.704 81.5124L732.3 73.4424L734.115 73.355C734.836 73.3185 735.544 73.553 736.089 74.0093C736.635 74.4656 736.974 75.1078 737.037 75.8005L751.103 226.746Z" fill="black"/>
<path d="M570.755 90.0977L724.731 82.8137L737.736 215.567L584.976 219.061L570.755 90.0977Z" fill="#637CFF"/>
<path opacity="0.1" d="M751.103 226.746C751.128 227.108 751.076 227.471 750.951 227.813C750.826 228.155 750.631 228.47 750.376 228.737C750.122 229.005 749.814 229.22 749.471 229.37C749.128 229.521 748.757 229.602 748.381 229.611L732.3 73.4424L734.115 73.355C734.836 73.3185 735.544 73.553 736.089 74.0093C736.635 74.4656 736.974 75.1078 737.037 75.8005L751.103 226.746Z" fill="black"/>
<path opacity="0.1" d="M152.669 76.0625L132.187 233.515L129.038 233.437C128.489 233.424 127.95 233.3 127.455 233.074C126.959 232.847 126.519 232.523 126.163 232.121C125.807 231.72 125.543 231.251 125.387 230.745C125.232 230.238 125.19 229.706 125.262 229.183L148.522 79.2416C148.67 78.3064 149.179 77.4595 149.948 76.8701C150.717 76.2807 151.689 75.9923 152.669 76.0625V76.0625Z" fill="black"/>
<path opacity="0.1" d="M209.27 267.612H192.027V282.529H209.27V267.612Z" fill="black"/>
<path opacity="0.1" d="M270.526 422.409V426.75L227.719 427.851V422.409H270.526Z" fill="black"/>
<path d="M346.076 272.808V419.711C346.065 420.607 345.696 421.466 345.046 422.108C344.395 422.75 343.513 423.127 342.582 423.16L168.659 427.615H168.614C167.667 427.603 166.762 427.236 166.092 426.592C165.422 425.947 165.041 425.076 165.029 424.165V272.808C165.041 271.897 165.422 271.026 166.092 270.382C166.762 269.737 167.667 269.37 168.614 269.359H342.491C343.438 269.37 344.343 269.737 345.013 270.382C345.683 271.026 346.064 271.897 346.076 272.808V272.808Z" fill="black"/>
<path opacity="0.1" d="M168.659 269.359V427.615H168.614C167.667 427.603 166.762 427.236 166.092 426.592C165.422 425.947 165.041 425.076 165.029 424.165V272.808C165.041 271.897 165.422 271.026 166.092 270.382C166.762 269.737 167.667 269.37 168.614 269.359H168.659Z" fill="black"/>
<path d="M176.6 278.739H337.682V408.217L176.6 411.71V278.739Z" fill="#D4DFEC"/>
<path opacity="0.1" d="M673.303 267.612H656.06V282.826H673.303V267.612Z" fill="black"/>
<path opacity="0.1" d="M658.937 422.409V428.008L616.13 426.907V422.409H658.937Z" fill="black"/>
<path d="M715.429 272.808V424.165C715.417 425.084 715.03 425.961 714.35 426.607C713.671 427.253 712.754 427.615 711.799 427.615V427.615L537.84 423.16C536.909 423.127 536.027 422.75 535.376 422.108C534.726 421.466 534.357 420.607 534.346 419.711V272.808C534.358 271.897 534.739 271.026 535.409 270.382C536.079 269.737 536.984 269.37 537.931 269.359H711.808C712.762 269.361 713.676 269.724 714.353 270.369C715.031 271.015 715.417 271.891 715.429 272.808V272.808Z" fill="black"/>
<path opacity="0.1" d="M715.429 272.808V424.165C715.417 425.084 715.03 425.961 714.35 426.607C713.671 427.253 712.754 427.615 711.799 427.615V427.615V269.359C712.754 269.359 713.671 269.721 714.35 270.366C715.03 271.012 715.417 271.889 715.429 272.808Z" fill="black"/>
<path d="M703.859 278.739H542.777V408.217L703.859 411.71V278.739Z" fill="#D4DFEC"/>
<path d="M529.845 272.808V419.711C529.834 420.607 529.465 421.466 528.815 422.108C528.164 422.75 527.282 423.127 526.351 423.16L352.428 427.615C351.474 427.615 350.557 427.253 349.878 426.607C349.198 425.961 348.81 425.084 348.798 424.165V272.808C348.81 271.897 349.192 271.026 349.861 270.382C350.531 269.737 351.436 269.37 352.383 269.359H526.26C527.207 269.37 528.112 269.737 528.782 270.382C529.452 271.026 529.833 271.897 529.845 272.808V272.808Z" fill="black"/>
<path d="M360.369 278.739H521.451V408.217L360.369 411.71V278.739Z" fill="#D4DFEC"/>
<path opacity="0.1" d="M783.265 466.078V477.432L645.397 478.655L643.927 478.681L591.528 479.144L590.276 479.162L574.349 479.293H573.877L476.793 480.157L317.426 481.581H317.29L276.77 481.948L276.334 481.956L96.286 483.546V470.445L280.064 469.284H280.5L317.698 469.039H317.871L574.766 467.406H575.03L575.184 467.397H575.61L579.957 467.371H581.282L648.882 466.934L652.875 466.917L653.765 466.908L783.265 466.078Z" fill="black"/>
<path d="M442.189 282.529C467.916 282.529 488.772 262.458 488.772 237.699C488.772 212.939 467.916 192.868 442.189 192.868C416.463 192.868 395.607 212.939 395.607 237.699C395.607 262.458 416.463 282.529 442.189 282.529Z" fill="#FBBEBE"/>
<path d="M488.781 329.403C488.781 329.403 398.484 339.884 407.105 329.403C410.227 325.613 411.089 314.381 410.917 301.586C410.863 297.7 410.717 293.673 410.509 289.665C409.51 270.45 407.105 251.673 407.105 251.673C407.105 251.673 486.058 215.864 476.983 244.249C473.353 255.716 474.542 271.822 477.301 286.94C478.108 291.35 479.043 295.673 480.023 299.778C482.415 309.791 485.338 319.679 488.781 329.403V329.403Z" fill="#FBBEBE"/>
<path opacity="0.1" d="M488.781 329.403C488.781 329.403 398.484 339.884 407.105 329.403C410.227 325.613 411.089 314.381 410.917 301.586C424.684 295.927 442.199 300.145 442.199 300.145C460.639 296.608 472.464 297.298 480.023 299.778C482.415 309.791 485.338 319.679 488.781 329.403V329.403Z" fill="black"/>
<path d="M317.39 482.568V481.834L476.765 480.166L573.868 479.293H574.14L574.04 480.585L574.177 479.293H574.349V479.144L575.592 467.397L576.064 462.952L576.209 461.563L576.336 460.401L581.945 442.401L587.553 424.427L592.272 409.291L599.478 386.164C599.478 386.164 595.394 376.994 593.125 374.374C590.856 371.753 588.588 353.849 588.588 353.849C588.588 353.849 569.222 336.093 560.755 334.05C557.206 333.176 550.2 332.015 542.759 330.556C539.973 330.015 537.114 329.438 534.364 328.809C532.813 328.469 531.288 328.111 529.827 327.753C526.983 327.069 524.181 326.235 521.433 325.255C519.992 324.751 518.62 324.079 517.349 323.255C510.679 318.547 493.962 318.015 493.318 318.015C493.316 317.994 493.316 317.974 493.318 317.953V317.875C493.342 317.508 493.342 317.141 493.318 316.774C493.318 316.425 493.318 316.014 493.236 315.552C493.236 315.412 493.236 315.263 493.173 315.115C493.128 314.8 493.073 314.469 492.991 314.119C492.964 313.963 492.928 313.809 492.883 313.656C492.62 312.604 492.239 311.582 491.748 310.608C491.685 310.468 491.603 310.32 491.53 310.18C491.085 309.373 490.569 308.605 489.988 307.883C489.87 307.735 489.743 307.578 489.606 307.429C488.863 306.586 488.036 305.813 487.138 305.123C486.893 304.94 486.639 304.748 486.376 304.573C486.229 304.459 486.074 304.354 485.913 304.259L485.105 303.752L484.352 303.333C483.69 302.984 482.991 302.643 482.228 302.32C481.992 302.215 481.738 302.119 481.484 302.023C481.23 301.927 480.831 301.778 480.495 301.656H480.441L479.76 301.394C479.243 301.228 478.716 301.08 478.163 300.931L477.319 300.722L476.411 300.521L475.504 300.337C474.596 300.163 473.625 300.005 472.609 299.883L471.574 299.761L470.513 299.656L469.414 299.569L467.854 299.481L466.039 299.42C458.034 299.42 450.051 300.236 442.226 301.857C436.789 300.693 431.221 300.2 425.655 300.39H424.865L423.958 300.442H423.377L422.206 300.547C421.816 300.547 421.417 300.626 421.027 300.678C420.636 300.73 420.228 300.774 419.838 300.835L419.239 300.931C418.649 301.027 418.05 301.132 417.424 301.254C417.224 301.289 417.024 301.333 416.825 301.385C416.035 301.551 415.246 301.752 414.465 301.979C414.075 302.084 413.685 302.206 413.295 302.337C413.095 302.39 412.904 302.46 412.714 302.529L412.133 302.73L411.561 302.949L410.881 303.211C410.536 303.35 410.2 303.499 409.864 303.656C409.674 303.735 409.483 303.822 409.302 303.918C409.12 304.014 408.93 304.093 408.757 304.189C406.705 305.209 404.809 306.497 403.121 308.014L402.659 308.442L402.205 308.888C402.051 309.036 401.905 309.193 401.76 309.351C401.169 309.973 400.617 310.629 400.109 311.316C399.963 311.499 399.827 311.682 399.691 311.875C399.115 312.692 398.594 313.544 398.13 314.425C398.012 314.635 397.903 314.853 397.794 315.062C397.054 316.538 396.447 318.072 395.979 319.648C395.81 320.23 395.656 320.812 395.517 321.394C395.517 321.394 376.305 329.552 360.369 335.456C356.131 337.028 352.138 338.452 348.798 339.526C347.827 339.84 346.92 340.128 346.076 340.399C344.245 341.036 342.34 341.458 340.404 341.657C339.491 341.671 338.581 341.753 337.682 341.901C330.358 343.046 317.807 348.015 316.437 353.002C316.326 353.4 316.295 353.815 316.346 354.225C316.346 354.225 316.346 354.286 316.346 354.321C317.254 360.434 310.901 359.561 310.901 359.561C310.901 359.561 308.632 375.719 305.456 380.085C303.16 383.23 301.59 390.243 301.391 395.536C301.276 397.185 301.411 398.841 301.79 400.453C301.79 400.496 301.79 400.54 301.79 400.575C302.153 401.745 301.282 404.942 299.802 409.038C298.196 413.536 295.855 419.126 293.604 424.401C290.21 432.366 287.016 439.597 286.816 441.187C286.734 441.894 286.498 443.161 286.172 444.794C284.847 451.449 281.906 464.122 280.454 469.249C279.375 473.074 277.805 478.314 276.725 481.913C276.725 482.017 276.661 482.122 276.634 482.218L317.317 481.834V482.568H317.444H317.39Z" fill="#E4E582"/>
<path opacity="0.1" d="M332.237 379.623C332.237 379.623 383.964 405.387 402.568 402.33L332.237 379.623Z" fill="black"/>
<path opacity="0.1" d="M437.507 369.142C437.507 369.142 487.873 384.863 504.662 387.046C521.451 389.23 437.507 369.142 437.507 369.142Z" fill="black"/>
<path opacity="0.1" d="M493.373 318.556C467.055 323.22 417.505 322.215 396.088 321.508C403.938 294.433 442.217 303.639 442.217 303.639C489.597 294.538 493.227 313.421 493.373 318.556Z" fill="black"/>
<path d="M493.373 316.809C467.055 321.473 417.505 320.469 396.088 319.761C403.938 292.687 442.217 301.892 442.217 301.892C489.597 292.791 493.227 311.674 493.373 316.809Z" fill="#E4E582"/>
<path d="M633.073 436.174C633.073 436.174 664.074 431.589 664.682 444.689C665.29 457.79 648.873 466.943 648.873 466.943L633.073 436.174Z" fill="#FBBEBE"/>
<path opacity="0.1" d="M477.301 286.94C475.967 287.513 474.604 288.02 473.217 288.459C463.434 291.708 453.57 294.984 443.269 296.171C432.969 297.359 422.161 296.311 413.177 291.368C412.233 290.855 411.324 290.286 410.454 289.665C409.456 270.45 407.051 251.673 407.051 251.673C407.051 251.673 486.004 215.864 476.929 244.249C473.317 255.716 474.542 271.822 477.301 286.94Z" fill="black"/>
<path d="M429.412 167.627C428.117 167.957 426.759 167.99 425.448 167.725C424.137 167.459 422.909 166.903 421.861 166.099L423.749 168.623C422.637 168.747 421.51 168.635 420.447 168.295C419.384 167.956 418.411 167.397 417.596 166.658C417.425 168.918 417.522 171.188 417.887 173.427C414.763 173.572 411.688 172.643 409.211 170.807C409.162 171.594 409.366 172.378 409.795 173.051C410.223 173.724 410.855 174.254 411.607 174.571C408.469 174.21 405.302 174.96 402.697 176.682C400.092 178.403 398.227 180.977 397.45 183.925L402.187 184.344C398.464 185.109 395.122 187.071 392.712 189.907C391.26 191.654 390.153 193.89 390.789 196.021C391.424 198.152 394.491 199.515 396.161 197.995C393.786 200.723 392.059 203.919 391.103 207.357C390.147 210.796 389.984 214.394 390.625 217.899C391.056 219.393 391.197 220.95 391.043 222.493C390.743 223.934 389.799 225.183 389.327 226.589C388.42 229.14 389.282 231.908 390.09 234.45L394.346 247.917C395.889 252.782 397.422 257.655 399.437 262.363C400.864 265.339 402.077 268.406 403.067 271.542C404.21 275.769 404.256 280.398 406.697 284.092C408.37 286.417 410.607 288.315 413.213 289.621C422.188 294.564 433.033 295.612 443.306 294.425C453.579 293.237 463.434 289.962 473.208 286.713C475.379 286.083 477.463 285.203 479.415 284.092C486.176 279.83 487.683 271.114 488.944 263.437C490.351 254.878 492.229 246.336 495.56 238.284C497.538 233.489 500.097 228.624 499.662 223.489C499.108 216.668 493.5 211.139 492.111 204.432C491.646 202.19 491.668 199.879 492.175 197.645C492.605 196.315 492.846 194.934 492.892 193.541C492.737 190.728 490.342 188.562 488.091 186.754C483.209 182.83 478.169 179.121 472.972 175.628C472.709 173.881 475.177 173.13 476.293 171.75C477.872 169.802 476.239 166.71 473.843 165.802C471.447 164.894 468.761 165.488 466.266 166.09C466.428 164.861 466.174 163.614 465.541 162.535C464.908 161.455 463.93 160.602 462.753 160.1C461.575 159.599 460.261 159.477 459.005 159.752C457.75 160.027 456.62 160.685 455.784 161.627C455.121 160.165 454.062 158.9 452.718 157.966C451.374 157.032 449.794 156.463 448.143 156.317C442.126 155.863 442.008 160.291 438.16 162.728C434.312 165.165 431.136 161.951 428.178 159.61C427.634 160.933 427.462 162.37 427.679 163.778C427.895 165.185 428.493 166.513 429.412 167.627V167.627Z" fill="#3F3D56"/>
<path d="M656.06 462.375C656.06 462.375 655.253 464.227 653.764 466.908C651.513 471.033 648.772 474.893 645.597 478.41L645.352 478.664H643.882L591.483 479.127H590.23L590.076 478.952L579.912 467.345L576.082 462.969L575.928 462.786L575.601 462.419L575.42 462.209L575.184 461.938L567.733 453.432L570.456 442.515L575.093 424.121L575.211 423.676L576.119 420.182L576.763 417.562L578.923 409.02L586.328 379.631L599.487 386.182L613.362 409.763L620.813 422.427H624.897C625.668 422.427 627.438 423.859 629.217 425.51C629.852 426.095 630.487 426.715 631.032 427.257C632.647 428.864 633.926 430.244 633.926 430.244C633.926 430.244 640.542 430.383 642.321 435.396C642.413 435.639 642.488 435.887 642.548 436.139C643.138 438.109 643.906 440.026 644.844 441.868C646.014 444.322 647.485 447.109 648.973 449.895C651.741 455.004 654.554 459.869 655.589 461.633L655.716 461.851L656.06 462.375Z" fill="#E4E582"/>
<path opacity="0.1" d="M578.106 422.942L578.015 424.191V424.278L577.861 426.287L576.654 442.453L575.193 461.93L574.776 467.415L573.868 479.153V479.301L476.765 480.175L317.417 481.834V482.568H317.29V481.834V481.59L317.698 469.048L318.479 444.541L319.15 423.763L319.214 421.693C319.254 420.444 319.557 419.215 320.107 418.083C320.657 416.95 321.44 415.938 322.41 415.106C323.38 414.275 324.516 413.643 325.748 413.248C326.98 412.854 328.283 412.705 329.578 412.811C333.861 413.16 339.424 413.588 346.076 414.042L348.798 414.235C387.213 416.802 458.207 420.121 529.845 415.981C531.352 415.903 532.867 415.815 534.383 415.711C545.49 415.038 556.589 414.173 567.579 413.09C568.968 412.95 570.373 413.105 571.693 413.544C573.014 413.982 574.218 414.694 575.222 415.63C576.225 416.565 577.004 417.7 577.502 418.956C578 420.212 578.207 421.558 578.106 422.898V422.942Z" fill="black"/>
<path d="M317.39 482.568V481.834L476.765 480.166L573.868 479.293H574.14V479.144L575.048 467.406L575.438 462.166L576.926 442.418L578.097 426.785V426.401C578.151 425.68 578.118 424.956 577.997 424.243C578.002 424.215 578.002 424.185 577.997 424.156C577.748 422.682 577.124 421.29 576.182 420.104C575.183 418.87 573.874 417.903 572.378 417.291C570.882 416.68 569.249 416.446 567.634 416.61C556.644 417.693 545.545 418.558 534.437 419.23C532.922 419.335 531.406 419.422 529.9 419.501C458.261 423.597 387.267 420.278 348.853 417.754L346.13 417.562C339.478 417.108 333.915 416.689 329.632 416.331C327.276 416.139 324.929 416.795 323.045 418.171C321.162 419.546 319.874 421.545 319.432 423.781C319.34 424.253 319.285 424.732 319.268 425.213L318.651 444.567L317.807 469.083L317.408 481.624V481.869V482.603L317.39 482.568Z" fill="#3F3D56"/>
<path opacity="0.1" d="M578.378 429.065L577.262 442.453L575.601 462.41L575.184 467.406L574.276 478.594L574.222 479.153V479.301L574.086 480.594L574.186 479.301H573.923L476.82 480.175L317.417 481.834V481.589L317.862 469.048L318.769 444.541L319.35 428.252C319.379 427.326 319.648 426.421 320.133 425.62C320.618 424.819 321.303 424.148 322.127 423.667C323.155 423.061 324.356 422.786 325.557 422.881C327.463 423.029 329.804 423.204 332.536 423.396C336.974 423.711 342.446 424.078 348.817 424.462C360.614 425.178 375.415 425.947 392.377 426.575C439.567 428.322 503.273 428.907 563.786 423.807C566.508 423.58 569.321 423.326 572.071 423.073C573.16 422.969 574.256 423.169 575.229 423.65C575.505 423.782 575.766 423.94 576.01 424.121C576.8 424.672 577.426 425.413 577.825 426.27C577.917 426.44 577.993 426.619 578.052 426.802C578.324 427.526 578.436 428.297 578.378 429.065V429.065Z" fill="#602F36"/>
<path opacity="0.1" d="M270.526 441.021V443.807C270.527 444.82 270.229 445.813 269.666 446.669C269.104 447.526 268.301 448.211 267.35 448.646L230.959 449.318C229.992 448.891 229.172 448.206 228.597 447.343C228.023 446.481 227.718 445.478 227.719 444.453V441.833L270.526 441.021Z" fill="black"/>
<path d="M270.98 450.288L223.563 451.161V443.589L270.98 442.715V450.288Z" fill="#3F3D56"/>
<path opacity="0.1" d="M270.98 450.288L223.563 451.161V443.589L270.98 442.715V450.288Z" fill="black"/>
<path d="M272.795 450.288L225.378 451.161V443.589L272.795 442.715V450.288Z" fill="#3F3D56"/>
<g opacity="0.1">
<path opacity="0.1" d="M429.784 164.763C428.897 163.654 428.308 162.352 428.069 160.972C427.85 162.321 427.981 163.701 428.45 164.99C428.9 164.95 429.346 164.874 429.784 164.763Z" fill="black"/>
<path opacity="0.1" d="M418.259 170.562C418.087 169.491 417.975 168.413 417.923 167.331C417.923 168.405 417.923 169.488 417.923 170.571L418.259 170.562Z" fill="black"/>
<path opacity="0.1" d="M492.22 199.707C492.27 198.929 492.379 198.155 492.547 197.392C492.976 196.064 493.22 194.686 493.273 193.296C493.252 192.984 493.204 192.674 493.128 192.37C492.973 193.174 492.728 193.977 492.547 194.772C492.184 196.392 492.074 198.055 492.22 199.707Z" fill="black"/>
<path opacity="0.1" d="M473.344 172.719L474.333 173.409C475.167 172.829 475.947 172.18 476.665 171.47C477.007 171.016 477.219 170.483 477.279 169.925C477.34 169.367 477.247 168.804 477.01 168.291C476.92 168.491 476.804 168.678 476.665 168.85C475.549 170.23 473.081 170.99 473.344 172.719Z" fill="black"/>
<path opacity="0.1" d="M398.775 181.121C398.444 181.758 398.179 182.425 397.985 183.112C399.405 182.35 400.934 181.794 402.523 181.462L398.775 181.121Z" fill="black"/>
<path opacity="0.1" d="M411.289 171.619C410.693 171.303 410.123 170.944 409.583 170.545C409.56 170.89 409.588 171.237 409.665 171.575C410.206 171.55 410.749 171.565 411.289 171.619V171.619Z" fill="black"/>
<path opacity="0.1" d="M500.015 223.078C499.643 227.314 497.592 231.393 495.932 235.41C492.601 243.463 490.723 252.005 489.316 260.572C488.055 268.249 486.594 276.966 479.787 281.219C477.843 282.337 475.76 283.217 473.589 283.839C463.806 287.097 453.942 290.363 443.641 291.551C433.341 292.739 422.533 291.7 413.549 286.756C410.944 285.448 408.708 283.551 407.033 281.228C404.61 277.533 404.564 272.905 403.403 268.677C402.412 265.538 401.199 262.469 399.773 259.489C397.767 254.791 396.224 249.882 394.691 245.052C393.269 240.563 391.85 236.071 390.435 231.576C389.968 230.224 389.622 228.836 389.4 227.428C389.046 229.664 389.736 232.004 390.435 234.196C391.85 238.697 393.269 243.189 394.691 247.673C396.224 252.537 397.767 257.411 399.773 262.11C401.199 265.089 402.412 268.159 403.403 271.297C404.546 275.525 404.592 280.154 407.033 283.848C408.708 286.171 410.944 288.068 413.549 289.376C422.533 294.32 433.369 295.359 443.641 294.171C453.914 292.983 463.77 289.717 473.589 286.459C475.76 285.838 477.843 284.957 479.787 283.839C486.548 279.586 488.055 270.87 489.316 263.193C490.723 254.625 492.601 246.083 495.932 238.031C497.91 233.244 500.469 228.38 500.034 223.235C500.034 223.183 500.015 223.131 500.015 223.078Z" fill="black"/>
<path opacity="0.1" d="M391.397 219.698C391.397 219.698 391.397 219.637 391.397 219.602C391.56 218.062 391.419 216.506 390.979 215.017C390.798 214.059 390.68 213.09 390.625 212.117C390.521 213.964 390.64 215.817 390.979 217.637C391.124 218.318 391.288 219.008 391.397 219.698Z" fill="black"/>
<path opacity="0.1" d="M394.164 198.335C394.862 197.207 395.655 196.135 396.533 195.13C394.872 196.659 391.805 195.296 391.161 193.174C390.923 194.032 390.923 194.936 391.161 195.794C391.384 196.435 391.78 197.007 392.307 197.454C392.835 197.9 393.475 198.204 394.164 198.335V198.335Z" fill="black"/>
</g>
<path opacity="0.1" d="M620.822 422.418C620.822 422.418 623.699 432.462 620.822 441.196C617.945 449.93 620.822 422.418 620.822 422.418Z" fill="black"/>
<path opacity="0.1" d="M633.073 432.663C633.073 432.663 634.28 445.414 631.558 447.676C628.835 449.938 633.073 432.663 633.073 432.663Z" fill="black"/>
<path d="M180.584 299.446L272.795 298.573" stroke="#637CFF" stroke-width="2" stroke-miterlimit="10"/>
<path d="M180.584 310.337L272.795 309.473" stroke="#637CFF" stroke-width="2" stroke-miterlimit="10"/>
<path d="M180.584 321.237L272.795 320.364" stroke="#637CFF" stroke-width="2" stroke-miterlimit="10"/>
</g>
<defs>
<clipPath id="clip0_0:1">
<rect width="945" height="484" fill="white"/>
</clipPath>
</defs>
</svg>
