<svg width="765" height="551" viewBox="0 0 765 551" fill="none" xmlns="http://www.w3.org/2000/svg">
<rect width="765" height="551" fill="white"/>
<path d="M215.79 61.6355L253.918 442.662L177.661 447.557V66.4832C186.748 61.3504 199.792 60.5473 215.79 61.6355Z" fill="#602F36"/>
<path d="M403.997 61.6355L365.869 442.662L442.126 447.557V66.4832C433.039 61.3504 419.995 60.5473 403.997 61.6355Z" fill="#602F36"/>
<path d="M430.708 463.305H188.268C184.381 463.301 180.654 461.981 177.905 459.634C175.156 457.288 173.61 454.106 173.605 450.787V72.0752C173.61 68.7566 175.156 65.5749 177.905 63.2283C180.654 60.8817 184.381 59.5617 188.268 59.5579H430.708C434.595 59.5617 438.322 60.8817 441.071 63.2283C443.82 65.5749 445.366 68.7566 445.371 72.0752V450.787C445.366 454.106 443.82 457.288 441.071 459.634C438.322 461.981 434.595 463.301 430.708 463.305V463.305ZM188.268 63.7131C185.671 63.7155 183.181 64.5973 181.345 66.165C179.509 67.7327 178.476 69.8582 178.473 72.0752V450.787C178.476 453.004 179.509 455.13 181.345 456.698C183.181 458.265 185.671 459.147 188.268 459.15H430.708C433.305 459.147 435.795 458.265 437.631 456.698C439.467 455.13 440.5 453.004 440.503 450.787V72.0752C440.5 69.8582 439.467 67.7327 437.631 66.165C435.795 64.5974 433.305 63.7156 430.708 63.7131L188.268 63.7131Z" fill="#602F36"/>
<path d="M442.937 122.578H176.039V126.734H442.937V122.578Z" fill="#602F36"/>
<path d="M442.937 191.832H176.039V195.987H442.937V191.832Z" fill="#602F36"/>
<path d="M262.65 61.6355H257.783V250.697H262.65V61.6355Z" fill="#602F36"/>
<path d="M361.193 61.6355H356.326V250.697H361.193V61.6355Z" fill="#602F36"/>
<path d="M473.358 474.732H153.73C147.921 474.732 142.35 472.762 138.242 469.255C134.134 465.748 131.826 460.992 131.826 456.033C131.826 451.074 134.134 446.318 138.242 442.812C142.35 439.305 147.921 437.335 153.73 437.335H473.358C479.168 437.335 484.739 439.305 488.847 442.812C492.954 446.318 495.262 451.074 495.262 456.033C495.262 460.992 492.954 465.748 488.847 469.255C484.739 472.762 479.168 474.732 473.358 474.732V474.732Z" fill="#602F36"/>
<path d="M442.937 241.002H177.661V254.852H442.937V241.002Z" fill="#602F36"/>
<path d="M263.405 285.082L263.069 284.943C244.985 277.486 221.304 277.492 186.282 284.968L185.908 285.047L185.796 284.732C182.091 274.362 177.894 262.617 185.779 256.838C185.889 239.881 203.313 226.112 224.715 226.112C246.112 226.112 263.533 239.874 263.65 256.827C275.379 264.482 269.789 275.794 263.595 284.807L263.405 285.082Z" fill="#2F2E41"/>
<path d="M374.554 248.772C374.23 250.146 373.557 251.443 372.582 252.571C371.608 253.699 370.355 254.63 368.913 255.3C367.471 255.97 365.874 256.362 364.235 256.448C362.596 256.535 360.955 256.313 359.428 255.799L295.52 310.623L289.818 293.6L353.29 242.688C354.471 240.555 356.528 238.865 359.071 237.94C361.614 237.015 364.467 236.918 367.088 237.667C369.709 238.417 371.916 239.962 373.293 242.009C374.669 244.055 375.118 246.462 374.554 248.772L374.554 248.772Z" fill="#FFB6B6"/>
<path d="M216.607 301.551C216.607 301.551 210.809 312.768 225.116 319.686C239.423 326.603 289.425 317.046 297.539 315.712C305.652 314.377 335.955 275.664 335.955 275.664L331.67 256.678L291.481 286.461L216.607 301.551Z" fill="#E4E582"/>
<path d="M206.055 363.58L206.866 376.738C206.866 376.738 204.472 388.394 206.441 390.909C208.395 393.412 261.727 393.728 261.727 393.728C261.727 393.728 265.251 377.511 268.286 363.317L206.055 363.58Z" fill="#FFB6B6"/>
<path d="M359.391 537.559L370.54 535.636L367.349 497.191L350.894 500.029L359.391 537.559Z" fill="#FFB6B6"/>
<path d="M375.361 487.528L385.727 483.55L372.28 446.765L356.982 452.638L375.361 487.528Z" fill="#FFB6B6"/>
<path d="M384.39 466.802L364.874 476.236L316.741 410.208C282.952 429.641 249.91 438.948 216.601 443.914C205.339 445.626 193.858 444.758 191.696 434.973C191.594 434.516 191.514 434.056 191.454 433.593C190.124 422.905 205.698 409.206 207.677 396.129L250.3 393.945L255.556 399.698L304.848 373.827C314.761 368.625 327.799 371.439 333.969 380.113C334.295 380.571 334.597 381.04 334.876 381.521L384.39 466.802Z" fill="#2F2E41"/>
<path d="M372.445 511.219L350.113 512.991L309.621 442.296C269.469 448.192 231.588 450.08 198.823 442.949C187.73 440.568 180.949 430.789 183.677 421.108C183.805 420.655 183.952 420.208 184.12 419.765C188.041 409.551 198.306 402.325 206.393 391.091L265.465 391.857L258.867 411.291L316.251 404.952C327.791 403.677 338.331 410.808 339.792 420.879C339.869 421.411 339.919 421.945 339.943 422.481L372.445 511.219Z" fill="#2F2E41"/>
<path d="M229.12 275.031C242.368 275.031 253.107 265.863 253.107 254.554C253.107 243.245 242.368 234.078 229.12 234.078C215.873 234.078 205.134 243.245 205.134 254.554C205.134 265.863 215.873 275.031 229.12 275.031Z" fill="#FFB6B6"/>
<path d="M215.058 282.423L237.052 284.632C237.979 284.725 238.849 285.063 239.541 285.598C240.233 286.134 240.712 286.84 240.912 287.619L244.409 301.282L266.213 323.201C266.213 323.201 274.042 335.733 271.106 349.936C268.17 364.139 266.88 374.693 266.88 374.693C266.88 374.693 208.393 393.413 206.435 390.907C204.478 388.4 203.843 377.015 203.843 377.015L196.013 302.659C196.013 302.659 204.821 290.127 209.715 290.127C212.873 290.036 212.468 283.968 215.058 282.423Z" fill="#E4E582"/>
<path d="M267.474 379.264C270.559 379.264 273.059 376.703 273.059 373.544C273.059 370.384 270.559 367.823 267.474 367.823C264.39 367.823 261.89 370.384 261.89 373.544C261.89 376.703 264.39 379.264 267.474 379.264Z" fill="#6C63FF"/>
<path d="M353.858 527.66L370.856 520.388L374.06 526.768L395.555 530.478C396.616 530.661 397.582 531.129 398.31 531.813C399.038 532.498 399.49 533.363 399.602 534.283C399.713 535.203 399.476 536.129 398.927 536.926C398.378 537.723 397.545 538.349 396.55 538.713L375.781 546.313L369.033 541.312L370.804 548.135L362.973 551L353.858 527.66Z" fill="#2F2E41"/>
<path d="M370.497 484.468L387.343 476.941L390.677 483.273L412.245 486.659C413.311 486.826 414.286 487.279 415.028 487.953C415.77 488.626 416.24 489.485 416.37 490.403C416.5 491.321 416.283 492.25 415.751 493.055C415.218 493.86 414.398 494.499 413.41 494.878L392.801 502.789L385.951 497.889L387.862 504.684L380.092 507.667L370.497 484.468Z" fill="#2F2E41"/>
<path d="M215.416 248.131C209.079 248.14 202.894 246.474 197.71 243.363L197.537 243.259V243.079C197.544 237.846 199.982 232.83 204.316 229.129C208.651 225.429 214.528 223.348 220.657 223.342H230.392C236.522 223.348 242.399 225.429 246.733 229.129C251.067 232.83 253.506 237.846 253.512 243.079C253.506 244.277 252.952 245.425 251.969 246.279C250.985 247.133 249.65 247.626 248.247 247.652L215.963 248.127C215.781 248.13 215.598 248.131 215.416 248.131Z" fill="#2F2E41"/>
<path d="M255.135 239.289C258.239 237.759 258.758 233.565 256.293 229.921C253.829 226.278 249.315 224.564 246.211 226.094C243.107 227.624 242.588 231.818 245.053 235.461C247.517 239.105 252.031 240.818 255.135 239.289Z" fill="#2F2E41"/>
<path d="M206.588 235.224C210.073 232.249 210.843 228.083 208.309 225.92C205.774 223.756 200.895 224.414 197.41 227.389C193.925 230.364 193.154 234.529 195.689 236.693C198.223 238.856 203.103 238.199 206.588 235.224Z" fill="#2F2E41"/>
<path d="M311.964 407.412C310.329 407.541 308.681 407.363 307.136 406.889C305.59 406.416 304.185 405.659 303.02 404.672C301.854 403.684 300.956 402.491 300.389 401.176C299.822 399.86 299.6 398.455 299.738 397.058L219.881 360.526L237.348 350.979L312.69 388.277C315.423 388.631 317.909 389.828 319.677 391.642C321.445 393.457 322.372 395.761 322.283 398.12C322.193 400.479 321.094 402.727 319.192 404.44C317.29 406.153 314.718 407.21 311.964 407.412V407.412Z" fill="#FFB6B6"/>
<path d="M207.42 293.389C207.42 293.389 193.169 291.866 189.512 305.551C185.854 319.235 210.925 357.384 214.75 363.636C218.576 369.888 270.712 383.562 270.712 383.562L290.788 374.611L245.837 350.29L207.42 293.389Z" fill="#E4E582"/>
<path d="M307.866 236.846H312.733C315.1 236.846 317.369 237.649 319.043 239.078C320.716 240.506 321.657 242.444 321.657 244.464H298.942C298.942 242.444 299.882 240.506 301.556 239.078C303.229 237.649 305.499 236.846 307.866 236.846V236.846Z" fill="#602F36"/>
<path d="M503.555 385.81L466.472 344.222L437.212 358.346L499.216 421.202L503.555 385.81Z" fill="#3F3D56"/>
<path d="M588.976 318.205C589.8 335.634 592.963 352.924 598.403 369.737C597.235 372.084 596.029 374.416 594.785 376.731C590.078 385.5 584.808 394.04 578.998 402.313C562.705 425.546 542.367 446.527 518.682 464.538C516.119 466.484 513.52 468.397 510.886 470.279C495.87 452.605 487.766 433.103 484.562 413.034C484.156 410.485 483.823 407.909 483.572 405.347V405.333C482.957 399.106 482.759 392.853 482.98 386.607C482.988 386.108 483.004 385.603 483.028 385.097C483.312 378.421 484.018 371.731 485.081 365.104V365.097C485.203 364.335 485.324 363.573 485.462 362.811C485.852 360.526 486.29 358.241 486.768 355.969C489.554 342.868 493.442 329.956 498.401 317.333V317.326C498.539 316.959 498.677 316.599 498.831 316.238C499.367 314.867 499.91 313.51 500.47 312.153C500.505 312.046 500.548 311.942 500.6 311.841C501.322 310.068 502.06 308.309 502.815 306.564C503.017 306.079 503.228 305.594 503.447 305.109C504.299 303.163 505.167 301.231 506.051 299.327C506.327 298.717 506.611 298.108 506.895 297.505C507.114 297.041 507.325 296.577 507.552 296.12V296.113C508.842 293.392 510.148 290.723 511.471 288.108C515.178 280.753 518.991 273.835 522.706 267.456L522.714 267.45C538.136 241.043 552.154 223.896 552.154 223.896L604.796 238.439C598.517 247.948 593.657 261.972 590.996 278.516C588.946 291.666 588.27 304.946 588.976 318.198L588.976 318.205Z" fill="#3F3D56"/>
<path d="M501.484 313.974C501.176 313.358 500.827 312.755 500.47 312.153C498.619 309.094 496.237 306.292 493.404 303.842C492.982 303.475 492.544 303.108 492.09 302.762C487.203 298.92 481.261 296.191 474.813 294.828C468.364 293.465 461.617 293.512 455.195 294.964L455.162 294.978L454.919 295.033L454.976 295.269C455.219 296.366 455.572 297.443 456.03 298.489C456.152 298.773 456.29 299.043 456.428 299.313C456.485 299.438 456.558 299.548 456.623 299.673C456.623 299.673 456.614 299.68 456.631 299.68C456.631 299.687 456.639 299.694 456.639 299.701C456.793 299.957 456.939 300.22 457.101 300.469C456.769 300.199 456.452 299.922 456.144 299.638C455.844 299.375 455.568 299.098 455.292 298.821C454.347 297.88 453.492 296.875 452.737 295.816L452.607 295.629L452.38 295.705C449.318 296.61 446.398 297.831 443.683 299.341L443.391 299.507C441.318 300.669 438.983 301.445 436.535 301.787C434.088 302.128 431.584 302.026 429.186 301.488C425.406 300.655 421.464 300.503 417.611 301.041C413.758 301.579 410.078 302.794 406.804 304.611C404.636 305.818 402.675 307.277 400.98 308.946C400.833 309.092 400.687 309.244 400.541 309.389C400.233 309.708 399.941 310.033 399.657 310.366C396.608 313.845 394.736 317.973 394.246 322.298L394.23 322.457L394.384 322.548C397.129 324.154 400.234 325.257 403.503 325.789C401.449 326.033 399.37 326.077 397.305 325.92H397.297C396.36 325.854 395.428 325.743 394.506 325.588L394.336 325.56H394.327L394.116 325.525L394.149 325.858C394.391 330.089 395.951 334.189 398.667 337.735L398.749 337.832C398.779 337.867 398.806 337.904 398.83 337.943C399.981 339.445 400.938 341.05 401.685 342.728C403.582 346.898 404 351.452 402.886 355.824C401.626 360.499 402.045 365.39 404.088 369.859C406.131 374.329 409.704 378.169 414.341 380.88C418.414 383.272 423.16 384.694 428.091 385C428.765 385.049 429.446 385.076 430.127 385.076C434.028 385.087 437.889 384.4 441.46 383.061L441.59 383.02L441.623 382.895C442.309 381.003 443.274 379.192 444.494 377.507C444.095 378.835 443.893 380.201 443.894 381.572V382.029L444.357 381.801C444.754 381.6 445.16 381.385 445.525 381.184C447.716 379.963 449.701 378.49 451.422 376.807C452.096 376.143 452.777 375.499 453.491 374.855L453.499 374.848C454.886 373.587 456.355 372.354 457.88 371.177C461.125 368.689 464.597 366.427 468.264 364.411C471.928 362.403 475.759 360.625 479.727 359.093H479.735C480.181 358.912 480.635 358.739 481.081 358.573C483.057 357.839 484.959 356.968 486.768 355.969C486.833 355.935 486.89 355.907 486.947 355.872C494.789 351.489 500.554 344.872 503.216 337.199C505.879 329.526 505.265 321.296 501.484 313.974L501.484 313.974Z" fill="#66CC99"/>
<path opacity="0.15" d="M404.222 365.657C404.001 366.498 403.833 367.35 403.72 368.208C402.21 364.133 401.991 359.79 403.086 355.62C403.255 354.982 403.381 354.336 403.48 353.687C404.979 357.548 405.236 361.682 404.222 365.657Z" fill="black"/>
<path opacity="0.15" d="M404.836 335.616C402.433 335.901 399.996 335.911 397.59 335.645C396.96 334.631 396.416 333.579 395.962 332.498C398.641 334.041 401.661 335.102 404.836 335.616V335.616Z" fill="black"/>
<path opacity="0.15" d="M397.398 325.698C396.511 327.634 395.921 329.66 395.644 331.726C394.904 329.759 394.467 327.717 394.345 325.654L394.325 325.321L394.707 325.384C395.597 325.527 396.495 325.632 397.398 325.698Z" fill="black"/>
<path opacity="0.15" d="M407.013 304.405C410.283 302.586 413.961 301.369 417.812 300.83C421.664 300.292 425.604 300.444 429.383 301.278C431.782 301.819 434.287 301.923 436.736 301.582C439.185 301.241 441.522 300.464 443.596 299.3L443.888 299.136C446.601 297.623 449.52 296.399 452.58 295.491L452.814 295.422L452.942 295.603C454.152 297.31 455.618 298.876 457.303 300.26C456.279 298.632 455.563 296.877 455.179 295.059L455.124 294.819L455.401 294.756C461.424 293.396 467.739 293.27 473.83 294.389C479.921 295.508 485.616 297.841 490.45 301.197C495.284 304.552 499.12 308.836 501.645 313.699C504.17 318.561 505.313 323.864 504.981 329.175C503.703 324.845 501.431 320.775 498.298 317.2C495.164 313.624 491.23 310.616 486.724 308.348C482.218 306.08 477.23 304.598 472.048 303.988C466.866 303.377 461.594 303.651 456.537 304.793L456.261 304.856L456.316 305.095C456.699 306.914 457.416 308.669 458.44 310.297C456.755 308.913 455.289 307.347 454.078 305.639L453.951 305.459L453.717 305.528C450.656 306.436 447.738 307.659 445.025 309.172L444.732 309.337C442.659 310.501 440.322 311.278 437.873 311.619C435.424 311.96 432.919 311.856 430.52 311.315C424.24 309.924 417.589 310.435 411.701 312.762C405.813 315.089 401.053 319.088 398.233 324.076C396.977 323.56 395.76 322.98 394.587 322.337L394.428 322.251L394.447 322.091C394.851 318.527 396.19 315.086 398.366 312.024C400.541 308.962 403.497 306.358 407.013 304.405V304.405Z" fill="black"/>
<path d="M708.602 127.454L707.831 127.018L707.271 127.641C702.939 132.297 699.493 137.506 697.058 143.077C697.394 136.659 698.708 130.306 700.968 124.178L701.211 123.534L700.514 123.195C691.437 118.807 681.765 115.384 671.715 113.001L670.619 112.751C662.917 110.947 655.746 107.777 649.574 103.448C643.403 99.1186 638.37 93.7275 634.803 87.6262C626.515 73.6236 613.422 62.1118 597.27 54.6269C581.119 47.142 562.677 44.04 544.407 45.7349H544.399C544.204 45.7488 544.001 45.7695 543.807 45.7903C543.474 45.818 543.149 45.8526 542.825 45.8873C542.16 45.9634 541.511 46.0396 540.862 46.1227C540.31 46.192 539.75 46.2682 539.199 46.3513C538.907 46.3859 538.623 46.4274 538.339 46.4759C538.055 46.5175 537.763 46.559 537.479 46.6075H537.471C532.024 47.487 526.685 48.7969 521.522 50.5203H521.514V50.5272L520.208 50.9635C518.861 51.4344 517.525 51.933 516.2 52.4594C515.9 52.5771 515.608 52.7017 515.308 52.8195C515.227 52.8541 515.137 52.8887 515.056 52.9303C514.204 53.2766 513.361 53.6367 512.525 54.0176C512.403 54.066 512.282 54.1214 512.16 54.1768L511.381 54.53C509.67 55.3195 507.988 56.1575 506.335 57.0439C506.197 57.1132 506.068 57.1824 505.93 57.2586C505.784 57.3417 505.63 57.4248 505.484 57.5079C505.394 57.5495 505.305 57.6049 505.216 57.6534C504.964 57.785 504.721 57.9235 504.478 58.0689C503.991 58.339 503.504 58.616 503.025 58.8999C502.531 59.1839 502.044 59.4817 501.557 59.7794L501.07 60.0772L501.16 60.5897C501.241 61.0121 501.314 61.4346 501.403 61.8501C501.484 62.2656 501.565 62.6742 501.655 63.0828C501.792 63.7684 501.947 64.4471 502.101 65.105C502.206 65.5413 502.304 65.9707 502.417 66.3931C502.523 66.8294 502.636 67.2657 502.758 67.702C502.993 68.6023 503.245 69.4749 503.512 70.3337C503.642 70.763 503.78 71.1924 503.926 71.6148C504.007 71.8711 504.088 72.1273 504.177 72.3766C504.242 72.5498 504.307 72.7229 504.372 72.896C504.388 72.9514 504.405 73.0138 504.429 73.0761C504.447 73.1348 504.469 73.1926 504.494 73.2492C504.583 73.5055 504.672 73.7548 504.762 73.9972C504.81 74.1287 504.859 74.2603 504.916 74.385C505.029 74.6828 505.151 74.9875 505.273 75.2783C505.402 75.6108 505.54 75.9432 505.678 76.2687C505.711 76.3518 505.743 76.4279 505.776 76.5111C505.8 76.5734 505.824 76.6357 505.857 76.698C505.889 76.7673 505.922 76.8435 505.954 76.9127C506.092 77.2244 506.23 77.5429 506.376 77.8546C506.425 77.9654 506.473 78.0831 506.53 78.1939C507.845 81.0152 509.461 83.7275 511.357 86.2966C509.256 84.7591 507.233 83.1294 505.289 81.4073C502.287 78.7446 499.521 75.895 497.014 72.8822C496.811 72.6467 496.609 72.4043 496.422 72.1619C496.041 71.6979 495.668 71.2339 495.303 70.763C494.913 70.2783 494.54 69.7727 494.175 69.2741C493.932 68.9417 493.688 68.6023 493.453 68.2699C493.218 67.9513 492.999 67.6397 492.788 67.3211L492.155 66.3931H492.147V66.4001L491.254 67.148C490.898 67.4458 490.541 67.7436 490.192 68.0413C479.288 77.4066 471.391 89.009 467.258 101.733L467.136 102.114L467.015 102.509C466.779 103.215 466.544 103.901 466.293 104.6V104.607C466.049 105.3 465.79 105.992 465.514 106.671C465.262 107.315 465.003 107.952 464.727 108.589C464.638 108.804 464.54 109.019 464.435 109.233C464.265 109.649 464.078 110.057 463.891 110.473C463.802 110.66 463.713 110.854 463.624 111.041C463.405 111.498 463.186 111.955 462.967 112.405C462.934 112.474 462.894 112.55 462.853 112.62C462.788 112.758 462.715 112.897 462.65 113.028C462.48 113.361 462.301 113.7 462.131 114.032C462.009 114.247 461.896 114.469 461.782 114.683C461.733 114.78 461.677 114.877 461.628 114.974C461.328 115.528 461.02 116.075 460.695 116.616C460.33 117.253 459.957 117.89 459.559 118.513C459.211 119.095 458.845 119.663 458.464 120.231C457.807 121.235 457.117 122.232 456.404 123.202C456.128 123.576 455.852 123.95 455.568 124.324C455.503 124.414 455.438 124.504 455.373 124.587C455.138 124.912 454.895 125.224 454.643 125.542C454.473 125.757 454.303 125.972 454.132 126.18C453.848 126.554 453.548 126.914 453.24 127.267C453.159 127.378 453.069 127.482 452.98 127.585C452.526 128.126 452.072 128.652 451.609 129.178C451.593 129.185 451.593 129.192 451.585 129.199C451.569 129.199 451.569 129.206 451.561 129.213C451.358 129.441 451.155 129.67 450.944 129.892C450.668 130.217 450.368 130.536 450.068 130.847C449.581 131.374 449.07 131.907 448.551 132.426C448.535 132.44 448.526 132.454 448.51 132.461C445.822 135.157 442.911 137.684 439.798 140.023C439.741 140.065 439.7 140.106 439.643 140.141C439.205 140.467 438.767 140.792 438.313 141.111C438.126 141.242 437.94 141.374 437.753 141.505C437.445 141.727 437.129 141.949 436.82 142.149C436.784 142.181 436.743 142.209 436.699 142.232C436.423 142.426 436.155 142.606 435.879 142.787C435.547 143.015 435.214 143.23 434.873 143.444C433.267 144.483 431.618 145.464 429.925 146.388C429.673 146.533 429.406 146.679 429.146 146.817C428.992 146.9 428.838 146.983 428.692 147.053C428.075 147.378 427.459 147.697 426.842 148.001C426.225 148.313 425.593 148.611 424.968 148.902C423.63 149.525 422.307 150.176 421.017 150.855C420.368 151.201 419.719 151.547 419.078 151.9C416.531 153.313 414.079 154.825 411.721 156.436C409.363 158.049 407.102 159.761 404.947 161.568C404.679 161.79 404.411 162.018 404.144 162.254C403.608 162.704 403.089 163.161 402.594 163.618C401.799 164.317 401.036 165.038 400.282 165.765C396.304 169.618 392.782 173.798 389.768 178.244C388.255 180.464 386.88 182.75 385.647 185.093C384.714 186.845 383.863 188.639 383.092 190.454C382.581 191.665 382.102 192.889 381.656 194.124C381.437 194.74 381.226 195.364 381.023 195.987C380.334 198.099 379.758 200.232 379.287 202.372C378.906 204.09 378.598 205.809 378.362 207.531C378.241 208.397 378.143 209.263 378.054 210.122C377.845 212.232 377.738 214.345 377.734 216.46C377.72 222.804 378.623 229.126 380.423 235.281C380.82 236.639 381.261 237.989 381.745 239.333C381.989 240.004 382.248 240.669 382.508 241.334C383.165 242.996 383.892 244.642 384.69 246.272C385.169 247.248 385.672 248.218 386.199 249.18C389.55 255.3 393.827 261.018 398.919 266.189C399.755 267.041 400.617 267.879 401.507 268.703C401.515 268.703 401.507 268.71 401.507 268.71C403.715 270.765 406.052 272.716 408.508 274.555H408.516C409.498 275.296 410.496 276.014 411.51 276.709C411.518 276.702 411.518 276.709 411.518 276.709C412.54 277.415 413.57 278.094 414.625 278.752C415.152 279.077 415.687 279.403 416.231 279.728C417.294 280.372 418.378 280.993 419.484 281.591H419.492C420.596 282.2 421.715 282.782 422.851 283.336C425.13 284.451 427.467 285.497 429.868 286.446L430.274 286.605L430.687 286.446C434.538 284.967 438.506 283.724 442.564 282.727C443.456 282.505 444.357 282.304 445.249 282.11C447.504 281.633 449.776 281.231 452.063 280.905C449.834 281.86 447.683 282.94 445.622 284.139C444.024 285.061 442.45 286.065 440.868 287.173C440.341 287.54 439.814 287.921 439.286 288.309L437.972 289.278L439.619 289.742C440.219 289.908 440.82 290.075 441.42 290.227C442.239 290.448 443.051 290.649 443.846 290.836C445.582 291.252 447.329 291.619 449.086 291.937C449.516 292.014 449.938 292.09 450.368 292.166C451.204 292.304 452.047 292.443 452.891 292.568C452.926 292.575 452.961 292.58 452.996 292.581C453.873 292.706 454.757 292.824 455.633 292.928C457.264 293.129 458.894 293.288 460.525 293.406C460.703 293.426 460.882 293.433 461.068 293.44C461.466 293.468 461.855 293.496 462.253 293.516C463.129 293.565 464.013 293.599 464.897 293.627C464.962 293.627 465.019 293.634 465.084 293.634C465.53 293.648 465.976 293.662 466.422 293.669C466.422 293.669 466.422 293.676 466.431 293.669C466.877 293.676 467.323 293.683 467.769 293.683H470.235C470.698 293.683 471.16 293.69 471.631 293.69C472.28 293.69 472.937 293.696 473.586 293.703C473.756 293.703 473.935 293.71 474.113 293.71C475.151 293.724 476.19 293.745 477.228 293.766C477.293 293.766 477.358 293.773 477.423 293.773C478.461 293.8 479.5 293.828 480.538 293.87C480.765 293.877 480.992 293.883 481.228 293.897C482.225 293.932 483.223 293.973 484.221 294.022C484.505 294.036 484.797 294.057 485.089 294.07C485.844 294.105 486.606 294.147 487.361 294.195C487.807 294.216 488.245 294.244 488.691 294.278C490.492 294.396 492.285 294.527 494.086 294.68C494.686 294.721 495.286 294.777 495.887 294.832C497.493 294.978 499.105 295.137 500.722 295.31C501.444 295.379 502.166 295.462 502.888 295.545C502.969 295.552 503.05 295.559 503.131 295.573C504.023 295.677 504.908 295.781 505.8 295.892C506.384 295.961 506.968 296.037 507.552 296.113C508.153 296.19 508.753 296.266 509.353 296.356C509.678 296.397 510.002 296.446 510.335 296.494C511.114 296.598 511.901 296.709 512.687 296.834C512.758 296.839 512.829 296.849 512.898 296.861C514.57 297.111 516.249 297.374 517.92 297.658C518.902 297.817 519.875 297.983 520.849 298.156C521.611 298.288 522.374 298.426 523.136 298.565C523.266 298.586 523.396 298.613 523.526 298.641C523.555 298.648 523.585 298.653 523.615 298.655C524.767 298.87 525.927 299.091 527.079 299.327C531.078 300.116 535.072 300.993 539.061 301.958C539.978 302.173 540.894 302.402 541.811 302.63C542.2 302.727 542.582 302.824 542.963 302.921C543.758 303.122 544.545 303.323 545.34 303.537C546.037 303.717 546.743 303.904 547.441 304.098C547.879 304.216 548.317 304.334 548.755 304.458C549.437 304.638 550.118 304.825 550.791 305.026C551.367 305.179 551.935 305.338 552.503 305.511C553.314 305.74 554.134 305.975 554.945 306.224C555.18 306.294 555.424 306.363 555.659 306.439C556.649 306.73 557.638 307.028 558.628 307.339C559.593 307.637 560.559 307.942 561.516 308.247C562.181 308.461 562.846 308.669 563.504 308.891C564.242 309.133 564.98 309.375 565.71 309.625C566.765 309.978 567.827 310.338 568.882 310.705C569.856 311.038 570.821 311.377 571.794 311.73C571.973 311.792 572.159 311.855 572.338 311.924C573.182 312.222 574.025 312.533 574.861 312.845C575.404 313.039 575.94 313.24 576.475 313.441C578.812 314.313 581.145 315.216 583.476 316.148H583.484C584.945 316.737 586.429 317.298 587.922 317.831C588.271 317.956 588.62 318.081 588.976 318.198C589.569 318.413 590.169 318.614 590.769 318.822C591.159 318.953 591.548 319.085 591.946 319.209C592.522 319.403 593.106 319.59 593.69 319.77C594.306 319.964 594.915 320.158 595.539 320.338C595.758 320.408 595.977 320.47 596.205 320.539C596.927 320.747 597.649 320.955 598.379 321.155C598.452 321.176 598.525 321.197 598.606 321.218C599.368 321.426 600.131 321.633 600.902 321.827C600.963 321.847 601.025 321.863 601.088 321.876C601.916 322.09 602.759 322.298 603.595 322.499C604.828 322.79 606.069 323.067 607.31 323.323C607.538 323.372 607.765 323.42 607.992 323.462C608.657 323.6 609.314 323.732 609.979 323.856C610.685 323.995 611.399 324.119 612.105 324.244C612.819 324.369 613.533 324.493 614.238 324.604C614.62 324.667 615.001 324.729 615.374 324.784L616.372 324.93C617.062 325.034 617.751 325.124 618.449 325.221C618.468 325.22 618.487 325.222 618.506 325.228C619.293 325.331 620.071 325.428 620.858 325.511C621.613 325.601 622.367 325.678 623.122 325.754C623.276 325.768 623.438 325.782 623.6 325.795C624.225 325.858 624.85 325.92 625.474 325.969C625.653 325.982 625.831 325.996 626.01 326.01C626.626 326.059 627.243 326.107 627.859 326.142C627.983 326.155 628.108 326.162 628.232 326.162C628.784 326.204 629.336 326.239 629.887 326.259C630.277 326.287 630.658 326.301 631.047 326.322C631.25 326.329 631.445 326.336 631.648 326.343C632.183 326.37 632.719 326.384 633.262 326.398C633.919 326.419 634.576 326.433 635.225 326.446C636.012 326.46 636.807 326.467 637.594 326.467H637.61C638.381 326.467 639.16 326.46 639.931 326.446H640.223L641.074 326.426C641.512 326.419 641.951 326.405 642.38 326.391C643.208 326.363 644.027 326.329 644.847 326.287C645.171 326.273 645.504 326.252 645.828 326.239C645.974 326.232 646.128 326.218 646.274 326.211C646.786 326.183 647.289 326.156 647.8 326.121C648.327 326.086 648.862 326.045 649.39 325.996C650.071 325.941 650.753 325.878 651.434 325.816C651.969 325.768 652.505 325.712 653.032 325.657C653.103 325.652 653.174 325.642 653.243 325.629C653.754 325.581 654.265 325.525 654.768 325.463C655.368 325.394 655.961 325.318 656.553 325.241C656.618 325.234 656.675 325.228 656.739 325.221C657.762 325.082 658.792 324.944 659.822 324.784C660.901 324.618 661.98 324.438 663.051 324.251C663.448 324.182 663.838 324.106 664.235 324.036C664.454 323.995 664.682 323.96 664.892 323.919C665.225 323.856 665.55 323.794 665.874 323.725C665.931 323.718 665.996 323.704 666.053 323.697C666.507 323.614 666.953 323.517 667.407 323.42C668.316 323.233 669.208 323.039 670.101 322.831C670.498 322.748 670.896 322.658 671.277 322.568C671.39 322.541 671.504 322.513 671.609 322.485C673.256 322.09 674.89 321.673 676.509 321.232C677.223 321.038 677.929 320.837 678.635 320.622C680.152 320.179 681.655 319.713 683.145 319.223C683.543 319.099 683.94 318.96 684.338 318.829C684.922 318.628 685.506 318.427 686.082 318.226C686.601 318.039 687.12 317.852 687.648 317.658C687.907 317.568 688.167 317.471 688.427 317.374C689.205 317.083 689.984 316.786 690.755 316.488C691.274 316.28 691.785 316.079 692.296 315.871C693.107 315.539 693.91 315.2 694.714 314.86C694.916 314.77 695.111 314.68 695.306 314.597C695.817 314.376 696.328 314.147 696.847 313.925C697.667 313.551 698.486 313.177 699.297 312.79C699.573 312.665 699.841 312.533 700.116 312.402C701.009 311.972 701.893 311.536 702.769 311.093C704.708 310.103 706.62 309.068 708.505 307.99C708.975 307.727 709.446 307.45 709.908 307.18C710.784 306.668 711.644 306.141 712.504 305.615C712.593 305.56 712.675 305.504 712.764 305.456C713.194 305.186 713.624 304.916 714.054 304.639C714.946 304.064 715.83 303.482 716.714 302.886C716.731 302.88 716.755 302.859 716.779 302.845C717.177 302.575 717.574 302.305 717.964 302.035C719.173 301.197 720.365 300.345 721.533 299.465C722.109 299.043 722.677 298.607 723.237 298.17C723.659 297.845 724.081 297.519 724.494 297.187C725.33 296.515 726.149 295.85 726.96 295.172C727.366 294.839 727.763 294.493 728.169 294.147C728.567 293.8 728.972 293.454 729.37 293.101C729.508 292.983 729.646 292.859 729.784 292.734C730.189 292.367 730.595 291.993 731 291.626C731.349 291.307 731.69 290.975 732.039 290.642C732.623 290.088 733.215 289.534 733.791 288.973C733.821 288.942 733.854 288.912 733.888 288.883C733.921 288.849 733.953 288.821 733.978 288.793H733.969C745.761 277.153 754.523 263.507 759.674 248.76C764.825 234.012 766.249 218.499 763.851 203.246C761.453 187.994 755.287 173.35 745.763 160.284C736.238 147.218 723.572 136.028 708.602 127.454L708.602 127.454Z" fill="#66CC99"/>
<g opacity="0.15">
<path opacity="0.15" d="M544.4 45.7295C546.017 50.6883 548.45 55.4262 551.626 59.8017C546.309 55.9024 541.559 51.4735 537.476 46.6094C539.769 46.2391 542.078 45.9458 544.4 45.7295Z" fill="black"/>
<path opacity="0.15" d="M465.242 122.419C459.237 125.216 453.623 128.585 448.507 132.46C457.146 123.74 463.46 113.52 467.011 102.509C467.054 102.377 467.097 102.243 467.139 102.111L467.259 101.736C471.526 88.5942 479.806 76.6557 491.251 67.1416L492.151 66.3932L492.785 67.3181C496.294 72.4108 500.492 77.1333 505.294 81.388C497.936 99.1126 483.618 113.864 465.242 122.419Z" fill="black"/>
<path opacity="0.15" d="M507.53 75.2466L507.41 75.6214C507.368 75.7538 507.325 75.887 507.282 76.0193C507.045 76.7481 506.793 77.4713 506.533 78.1915C503.967 72.517 502.164 66.6119 501.161 60.5899L501.067 60.0789L501.559 59.7786C507.732 55.9919 514.437 52.8805 521.516 50.5171C515.16 57.9801 510.423 66.3559 507.53 75.2466Z" fill="black"/>
<path opacity="0.15" d="M424.971 148.908C430.284 146.425 435.258 143.445 439.799 140.022C430.728 149.038 424.226 159.725 420.802 171.245C417.378 182.764 417.125 194.805 420.064 206.422C423.002 218.039 429.052 228.917 437.739 238.205C446.426 247.492 457.514 254.936 470.135 259.953L470.545 260.115L470.955 259.957C477.771 257.328 484.959 255.465 492.337 254.414C487.732 256.417 483.439 258.905 479.559 261.82L478.247 262.788L479.893 263.252C481.315 263.654 482.736 264.023 484.118 264.35C492.237 266.281 500.63 267.239 509.058 267.199C547.35 266.99 585.939 274.547 623.753 289.66C630.237 292.249 636.964 294.371 643.862 296.005C673.922 303.15 706.013 300.58 733.993 288.787C718.218 304.361 697.592 315.795 674.51 321.762C651.427 327.728 626.836 327.982 603.591 322.495C596.693 320.86 589.967 318.738 583.482 316.15C545.668 301.036 507.079 293.479 468.787 293.688C460.359 293.729 451.966 292.77 443.847 290.84C442.465 290.512 441.044 290.143 439.622 289.742L437.976 289.278L439.288 288.309C443.168 285.394 447.461 282.906 452.066 280.904C444.688 281.954 437.5 283.818 430.684 286.447L430.274 286.604L429.864 286.443C414.708 280.421 401.811 270.922 392.611 259.006C383.411 247.091 378.27 233.227 377.763 218.963C377.255 204.698 381.401 190.594 389.737 178.224C398.072 165.854 410.271 155.704 424.971 148.908L424.971 148.908Z" fill="black"/>
</g>
</svg>
