<svg width="844" height="625" viewBox="0 0 844 625" fill="none" xmlns="http://www.w3.org/2000/svg">
<rect width="844" height="625" fill="white"/>
<g clip-path="url(#clip0_0:1)">
<path d="M83 166C128.84 166 166 128.84 166 83C166 37.1604 128.84 0 83 0C37.1604 0 0 37.1604 0 83C0 128.84 37.1604 166 83 166Z" fill="#2F2E41" fill-opacity="0.79"/>
<path d="M761 352C806.84 352 844 314.84 844 269C844 223.16 806.84 186 761 186C715.16 186 678 223.16 678 269C678 314.84 715.16 352 761 352Z" fill="#2F2E41" fill-opacity="0.79"/>
<path d="M501.716 617.871L487.124 611.727L477.113 538.575H343.809L332.958 611.428L319.903 617.955C319.279 618.268 318.778 618.782 318.482 619.414C318.186 620.047 318.112 620.761 318.273 621.441C318.433 622.12 318.818 622.726 319.366 623.159C319.914 623.593 320.592 623.828 321.29 623.828H500.513C501.229 623.828 501.923 623.581 502.477 623.128C503.031 622.674 503.411 622.043 503.552 621.342C503.694 620.64 503.588 619.911 503.254 619.279C502.919 618.646 502.376 618.149 501.716 617.871V617.871Z" fill="#E5E5E5"/>
<path d="M738.607 548.308H83.7782C80.3425 548.3 77.0502 546.93 74.6235 544.498C72.1968 542.066 70.8339 538.77 70.8339 535.335V442.995H751.552V535.335C751.552 538.77 750.189 542.066 747.762 544.498C745.335 546.93 742.043 548.3 738.607 548.308V548.308Z" fill="#2F2E41" fill-opacity="0.72"/>
<path d="M752.236 486.637H70.2362V91.5357C70.241 87.3893 71.8903 83.4142 74.8223 80.4823C77.7543 77.5504 81.7295 75.9013 85.8758 75.8966H736.596C740.743 75.9012 744.718 77.5504 747.65 80.4823C750.582 83.4141 752.231 87.3893 752.236 91.5357V486.637Z" fill="#AF1414"/>
<path d="M711.503 457.96H110.969C107.773 457.957 104.708 456.686 102.448 454.425C100.187 452.165 98.916 449.1 98.9124 445.904V116.63C98.9159 113.433 100.187 110.368 102.448 108.108C104.708 105.848 107.773 104.576 110.969 104.572H711.503C714.7 104.576 717.764 105.848 720.025 108.108C722.285 110.368 723.557 113.433 723.56 116.63V445.904C723.557 449.1 722.285 452.165 720.025 454.425C717.764 456.686 714.7 457.957 711.503 457.96V457.96Z" fill="white"/>
<path d="M579.656 624.592H242.208C241.862 624.599 241.524 624.492 241.246 624.287C240.967 624.082 240.764 623.79 240.669 623.458C240.609 623.232 240.602 622.995 240.649 622.766C240.695 622.536 240.793 622.321 240.936 622.135C241.079 621.95 241.262 621.8 241.472 621.696C241.682 621.593 241.912 621.539 242.146 621.539H579.531C579.896 621.526 580.254 621.637 580.547 621.854C580.841 622.071 581.052 622.38 581.147 622.733C581.197 622.956 581.196 623.188 581.144 623.41C581.092 623.633 580.991 623.841 580.847 624.02C580.704 624.198 580.523 624.342 580.317 624.441C580.111 624.54 579.885 624.591 579.656 624.592Z" fill="#2F2E41" fill-opacity="0.79"/>
<path d="M643.433 399.344H516.907C516.592 399.37 516.279 399.272 516.036 399.07C515.792 398.869 515.637 398.58 515.604 398.265V296.206C515.637 295.892 515.792 295.603 516.036 295.401C516.279 295.2 516.592 295.102 516.907 295.128H643.433C643.748 295.102 644.061 295.2 644.305 295.401C644.548 295.603 644.703 295.892 644.736 296.206V398.266C644.703 398.58 644.548 398.869 644.305 399.071C644.061 399.272 643.748 399.37 643.433 399.344V399.344Z" fill="#EDEA7B"/>
<path d="M629.68 306.42H530.66C530.315 306.421 529.983 306.558 529.739 306.802C529.495 307.047 529.358 307.378 529.357 307.723V384.45C529.358 384.795 529.495 385.126 529.739 385.37C529.983 385.614 530.315 385.752 530.66 385.752H629.68C630.026 385.752 630.357 385.614 630.601 385.37C630.845 385.126 630.983 384.795 630.983 384.45V307.723C630.983 307.378 630.845 307.047 630.601 306.802C630.357 306.558 630.026 306.421 629.68 306.42V306.42Z" fill="white"/>
<path d="M577.724 358.411C584.677 358.411 590.314 352.775 590.314 345.821C590.314 338.868 584.677 333.231 577.724 333.231C570.771 333.231 565.134 338.868 565.134 345.821C565.134 352.775 570.771 358.411 577.724 358.411Z" fill="#FFB8B8"/>
<path d="M596.144 385.752H568.23L569.142 365.23L569.359 365.002L572.492 361.692H582.46L586.155 365.271L586.453 365.56L594.32 373.1L596.144 385.752Z" fill="#63E3FF"/>
<path d="M573.03 385.752H551.912C551.86 381.12 551.831 378.346 551.831 378.346L553.052 377.602L553.058 377.599H553.061L566.519 369.429L569.345 364.839L569.359 365.002L570.19 374.675C570.19 374.675 571.562 379.111 573.03 385.752Z" fill="#2F2E41"/>
<path d="M608.524 385.752H586.155C586.494 372.243 584.67 364.839 585.608 364.839L586.155 365.271L592.747 370.477L601.437 373.664H601.442L607.433 375.862L608.484 376.247V376.742C608.487 377.929 608.492 381.175 608.524 385.752Z" fill="#2F2E41"/>
<path d="M565.813 349.76C565.813 349.76 566.883 347.882 566.634 341.606C566.385 335.331 575.942 338.88 583.927 338.281C591.912 337.683 590.222 348.759 590.222 348.759C590.222 348.759 590.798 348.1 592.031 342.755C593.265 337.409 590.464 332.082 590.464 332.082C589.639 326.465 585.194 328.265 585.194 328.265C585.756 328.408 586.245 328.755 586.564 329.239C586.884 329.722 587.012 330.307 586.924 330.88C585.112 327.703 580.667 329.504 580.667 329.504C574.738 325.784 568.73 330.683 568.73 330.683C561.569 332.308 565.769 338.003 565.769 338.003C558.566 341.643 565.813 349.76 565.813 349.76Z" fill="#2F2E41"/>
<path d="M554.732 385.752H546.054C546.122 384.683 546.124 383.611 546.06 382.542C545.542 380.477 552.832 377.686 553.052 377.602L553.058 377.599H553.061L554.451 378.346L554.732 385.752Z" fill="#2F2E41"/>
<path d="M610.091 385.752H600.976L599.838 374.519L601.115 373.586C601.115 373.586 601.231 373.612 601.437 373.664H601.442C603.525 374.138 605.538 374.877 607.433 375.862C607.835 376.088 608.191 376.386 608.484 376.742C608.663 376.957 608.752 377.233 608.733 377.512C608.686 377.932 609.219 381.024 610.091 385.752Z" fill="#2F2E41"/>
<path d="M643.021 269.125H516.495C516.18 269.152 515.867 269.054 515.623 268.852C515.38 268.65 515.225 268.361 515.192 268.047V165.952C515.225 165.637 515.38 165.348 515.623 165.146C515.867 164.945 516.18 164.847 516.495 164.873H643.021C643.336 164.847 643.649 164.945 643.893 165.146C644.136 165.348 644.291 165.637 644.324 165.952V268.047C644.291 268.361 644.136 268.65 643.893 268.852C643.649 269.054 643.336 269.152 643.021 269.125V269.125Z" fill="#EDEA7B"/>
<path d="M629.268 176.165H530.248C529.902 176.166 529.571 176.303 529.327 176.547C529.083 176.792 528.945 177.123 528.945 177.468V254.194C528.945 254.54 529.083 254.871 529.327 255.115C529.571 255.359 529.902 255.497 530.248 255.497H629.268C629.614 255.497 629.945 255.359 630.189 255.115C630.433 254.871 630.571 254.54 630.571 254.194V177.468C630.571 177.123 630.433 176.792 630.189 176.547C629.945 176.303 629.614 176.166 629.268 176.165V176.165Z" fill="white"/>
<path d="M604.131 255.497C604.69 253.485 605.124 251.751 605.347 250.523C605.416 250.145 605.423 249.757 605.367 249.377C604.533 243.444 589.472 238.429 587.541 237.81L587.075 232.644L568.116 230.603L565.716 237.21L558.912 239.761C558.665 239.852 558.431 239.973 558.214 240.12C557.643 240.506 557.204 241.057 556.956 241.699C556.708 242.341 556.663 243.044 556.827 243.713L559.725 255.497H604.131L604.131 255.497Z" fill="#AF1468"/>
<path d="M564.83 255.497H550.119C550.646 252.214 551.118 249.31 551.424 247.463C552.548 240.74 557.447 240.167 558.214 240.12C558.275 240.114 558.312 240.114 558.315 240.114H561.41L564.83 255.497Z" fill="#6C63FF"/>
<path d="M604.131 255.497H607.698C607.525 253.276 606.716 251.151 605.367 249.377C604.691 248.483 603.818 247.757 602.817 247.254L602.547 247.139L599.412 255.497H604.131Z" fill="#6C63FF"/>
<path d="M576.855 227.334C584.394 227.334 590.505 221.222 590.505 213.683C590.505 206.144 584.394 200.033 576.855 200.033C569.316 200.033 563.204 206.144 563.204 213.683C563.204 221.222 569.316 227.334 576.855 227.334Z" fill="#A0616A"/>
<path d="M567.692 207.033C569.105 208.705 571.496 209.177 573.702 209.369C578.86 209.654 584.032 209.231 589.075 208.114C589.39 211.142 588.536 214.408 590.319 216.9C591.156 213.883 591.642 210.781 591.769 207.653C591.902 206.311 591.726 204.957 591.256 203.693C591.005 203.06 590.581 202.51 590.033 202.105C589.484 201.701 588.833 201.459 588.154 201.406C589.171 200.635 590.362 200.125 591.623 199.924L587.288 197.745L588.401 196.603L580.554 196.122L582.827 194.679C579.405 194.209 575.943 194.1 572.499 194.354C570.889 194.355 569.311 194.793 567.932 195.623C566.637 196.55 565.888 198.391 566.692 199.752C565.685 199.917 564.737 200.337 563.938 200.971C563.138 201.605 562.514 202.433 562.124 203.376C561.631 204.875 561.512 206.472 561.778 208.027C562.073 210.523 562.653 212.977 563.506 215.341" fill="#2F2E41"/>
<path d="M177.736 396.489V165.628C177.817 164.912 178.175 164.255 178.734 163.8C179.292 163.344 180.007 163.125 180.725 163.189H470.999C471.717 163.125 472.432 163.344 472.99 163.8C473.549 164.255 473.907 164.912 473.988 165.628V396.489C473.907 397.205 473.549 397.862 472.99 398.318C472.432 398.773 471.717 398.992 470.999 398.928H180.725C180.007 398.992 179.292 398.773 178.734 398.318C178.175 397.862 177.817 397.205 177.736 396.489V396.489Z" fill="#EDEA7B"/>
<path d="M209.287 192.084V368.108C209.289 368.901 209.604 369.66 210.164 370.221C210.725 370.781 211.484 371.096 212.277 371.097H439.447C440.239 371.096 440.999 370.781 441.559 370.221C442.12 369.66 442.435 368.901 442.436 368.108V192.084C442.435 191.292 442.12 190.532 441.559 189.972C440.999 189.412 440.239 189.096 439.447 189.095H212.277C211.484 189.096 210.725 189.412 210.164 189.972C209.604 190.532 209.289 191.292 209.287 192.084V192.084Z" fill="white"/>
<path d="M303.51 371.097H349.23L346.38 328.333L329.887 332.14L313.846 325.969L313.421 325.809L313.394 325.796C313.388 325.809 313.384 325.822 313.381 325.836C313.128 326.852 308.093 347.012 303.51 371.097Z" fill="#AF1468"/>
<path d="M275.957 335.315L280.228 371.097H318.761L313.846 325.969L313.799 325.53L313.421 325.809L313.381 325.836L303.875 332.771L275.957 335.315Z" fill="#2F2E41"/>
<path d="M342.468 371.097H376.975L377.473 342.927L352.079 334.504L346.38 328.333C346.38 328.333 344.58 346.899 342.468 371.097Z" fill="#2F2E41"/>
<path d="M259.345 371.097H287.94L286.107 345.464L275.957 335.315C275.957 335.315 267.927 352.16 259.345 371.097Z" fill="#2F2E41"/>
<path d="M368.838 371.097H383.923C383.857 362.887 383.817 357.215 383.817 355.614C383.892 353.139 383.352 350.685 382.245 348.47C381.138 346.256 379.498 344.351 377.473 342.927L369.854 345.464L368.838 371.097Z" fill="#2F2E41"/>
<path d="M371.191 314.877H291.258V281.187C291.258 269.641 299.392 255.76 309.391 250.243C323.424 242.5 338.766 242.364 351.482 249.871C357.467 253.415 362.43 258.453 365.885 264.49C369.34 270.527 371.168 277.358 371.191 284.314V314.877Z" fill="#2F2E41"/>
<path d="M358.141 299.024C365.789 285.032 360.647 267.49 346.656 259.842C332.665 252.194 315.123 257.336 307.474 271.327C299.826 285.318 304.968 302.86 318.959 310.508C332.95 318.157 350.493 313.015 358.141 299.024Z" fill="#FFB8B8"/>
<path d="M360.25 286.665H319.061L318.964 286.197C318.487 283.742 317.871 281.316 317.119 278.931C315.483 281.327 313.975 283.808 312.6 286.363L312.432 286.665H304.424C303.933 286.665 303.447 286.562 302.998 286.363C302.548 286.164 302.145 285.874 301.815 285.511C301.597 285.271 301.087 284.71 303.196 258.964C303.254 258.351 303.47 257.764 303.824 257.259C304.177 256.755 304.655 256.351 305.212 256.087C323.284 247.65 341.599 247.873 359.65 256.754H359.972L360.085 257.201C363.646 284.604 363.134 285.196 362.915 285.448C362.584 285.83 362.175 286.137 361.715 286.347C361.255 286.557 360.756 286.665 360.25 286.665V286.665Z" fill="#2F2E41"/>
</g>
<defs>
<clipPath id="clip0_0:1">
<rect width="844" height="624.592" fill="white"/>
</clipPath>
</defs>
</svg>
